<svg width="32" height="32" viewBox="0 0 32 32" fill="none" xmlns="http://www.w3.org/2000/svg">
<path fill-rule="evenodd" clip-rule="evenodd" d="M3.80575 3.80288L3.80288 3.80575C2.89654 4.71002 2.36373 5.90427 2.07732 7.85499C1.78212 9.86558 1.77778 12.4418 1.77778 15.9971C1.77778 19.5524 1.78212 22.1286 2.07734 24.14C2.36375 26.0914 2.8967 27.2881 3.80431 28.1957L3.80575 28.1971C4.71002 29.1035 5.90427 29.6363 7.85499 29.9227C9.86558 30.2179 12.4418 30.2222 15.9971 30.2222C19.5524 30.2222 22.1286 30.2179 24.14 29.9227C26.0914 29.6362 27.2881 29.1033 28.1957 28.1957C29.1036 27.2878 29.6363 26.0923 29.9227 24.1421C30.2179 22.1315 30.2222 19.5554 30.2222 15.9971C30.2222 12.4388 30.2179 9.86267 29.9227 7.85208C29.6364 5.90238 29.1038 4.70701 28.1964 3.79921C27.2888 2.89402 26.0931 2.3624 24.1427 2.07668C22.1318 1.78211 19.5552 1.77778 15.9971 1.77778C12.4388 1.77778 9.8627 1.78213 7.8529 2.07731C5.90338 2.36364 4.7103 2.89626 3.80575 3.80288ZM29.4528 2.54143C32 5.08867 32 8.98205 32 15.9971C32 23.0121 32 26.9055 29.4528 29.4528C26.9055 32 23.0063 32 15.9971 32C8.98785 32 5.08867 32 2.54723 29.4528C0 26.9055 0 23.0063 0 15.9971C0 8.98785 0 5.08867 2.54723 2.54723C5.08867 0 8.98205 0 15.9971 0C23.0121 0 26.9055 0 29.4528 2.54143Z" fill="black"/>
<path d="M9.88236 11.7142C10.922 11.7142 11.7647 10.8828 11.7647 9.85712C11.7647 8.83146 10.922 8 9.88236 8C8.84276 8 8 8.83146 8 9.85712C8 10.8828 8.84276 11.7142 9.88236 11.7142Z" fill="black"/>
<path d="M11.7646 12.6431H8V22.8571H11.7646V12.6431Z" fill="black"/>
<path d="M20.5734 12.6426C17.7499 12.6426 17.4111 14.2954 17.4111 14.2954V12.6426H13.6465V22.8566H17.4111V17.2853C17.4111 17.2853 17.4111 15.4282 19.0111 15.4282C19.9523 15.4282 20.2346 16.2546 20.2346 17.2853V22.8566H23.9993V17.2853C23.9993 14.379 22.7193 12.6426 20.5734 12.6426Z" fill="black"/>
</svg>
